<?xml version="1.0" encoding="utf-8"?>
<!-- Generator: Adobe Illustrator 19.0.0, SVG Export Plug-In . SVG Version: 6.00 Build 0)  -->
<svg version="1.1" id="Layer_1" xmlns="http://www.w3.org/2000/svg" xmlns:xlink="http://www.w3.org/1999/xlink" x="0px" y="0px"
	 viewBox="0 0 475.8 682.1" style="enable-background:new 0 0 475.8 682.1;" xml:space="preserve">
<style type="text/css">
	.st0{display:none;fill-rule:evenodd;clip-rule:evenodd;fill:#373435;}
	.st1{fill-rule:evenodd;clip-rule:evenodd;fill:#016AFE;}
	.st2{fill-rule:evenodd;clip-rule:evenodd;fill:#94C9FB;}
	.st3{fill-rule:evenodd;clip-rule:evenodd;fill:#F1F0E8;}
	.st4{fill-rule:evenodd;clip-rule:evenodd;fill:#B7DBF9;}
</style>
<path class="st0" d="M-170.3,778.6l-22.2,70.8l-22.2-70.8H-228l-22.2,70.8l-22.2-70.8h-13.2l27.8,87.7h15.3l21.1-66.8l21.2,66.8
	h15.3l27.8-87.7H-170.3L-170.3,778.6z M-117.3,778.6h-30.4v87.7h13v-29h17.4c17,0,31.5-10.4,31.5-29.3
	C-85.8,789-100.3,778.6-117.3,778.6L-117.3,778.6z M-117.3,825.2h-17.4v-34.3h17.4c10.7,0,18.7,5.7,18.7,17.2
	C-98.7,819.5-106.6,825.2-117.3,825.2L-117.3,825.2z M29.7,829.5v-50.9H16.9v50.9c0,18.9-8.3,25.8-21.7,25.8
	c-13.5,0-21.7-6.9-21.7-25.8v-50.9h-13v50.9c0,26.2,13.3,38,34.7,38C16.4,867.6,29.7,855.7,29.7,829.5L29.7,829.5z M39.3,848.2
	c1.2,12.8,12,19.4,27.1,19.4c13.8,0,24.6-6.4,24.6-17.5c0-8.6-5.8-14.8-18.5-19.3c-12.8-4.8-18.2-5.9-18.2-10.9
	c0-4.3,5.1-6.5,9.6-6.5c4.8,0,10,2.5,10.5,7.7h13c-0.6-10.3-9.5-18.4-24-18.4c-11.2,0-22.1,6.5-22.1,17.3c0,10.1,8.3,14.9,18.2,18.2
	c12.8,4.4,18.5,5.8,18.5,11.7c0,4.4-5.1,6.9-11.4,6.9c-8,0-13.2-3.5-14.5-8.5H39.3L39.3,848.2z M162.4,835.8
	c0-17.8-12-33.2-31.3-33.2c-18.8,0-31.3,14.7-31.3,32.1c0,18.7,13.2,32.9,32.2,32.9c16.8,0,26.6-11.4,28.7-20l-11.2-1.2
	c-2.6,4.8-8.3,9.8-17.3,9.8c-12,0-19.1-7.4-19.5-17h49.7V835.8L162.4,835.8z M131.1,814.1c10.9,0,17.8,7.5,18.3,15.9h-36.7
	C113.2,821.3,120.6,814.1,131.1,814.1L131.1,814.1z M200.4,802.6c-5.4,0-10.1,3.5-14.1,8.5l-0.6-7.3h-12.1v62.5h12.8v-29.5
	c0-12.5,4.3-22,13.2-22c2.7,0,5.2,1,6.4,1.7l2-11.2C206.7,804.1,204.1,802.6,200.4,802.6L200.4,802.6z M330.7,778.6L298.5,830
	l-32.1-51.4h-13v87.7h13V802l29.4,47.3h5.6l29.4-47.3v64.4h13v-87.7H330.7L330.7,778.6z M356.8,835.1c0,17.9,13.5,32.5,31.4,32.5
	c11.2,0,20.1-6.2,23.7-14.2l0.7,13h12.2v-62.5h-12.2l-0.7,12.8c-3.6-7.9-12.5-14.1-23.7-14.1C370.3,802.6,356.8,817.2,356.8,835.1
	L356.8,835.1z M369.7,835.1c0-11.1,8.8-20.3,20.6-20.3c11.6,0,20.3,9.1,20.3,20.3c0,11.1-8.6,20.3-20.3,20.3
	C378.4,855.4,369.7,846.2,369.7,835.1L369.7,835.1z M475.9,802.6c-10.1,0-18.2,4.9-24.1,11.2l-0.6-10h-12.1v62.5h12.8v-32.6
	c0.6-9.3,6.8-18.9,19-18.9c9,0,15.1,5.4,15.1,20.5v31h12.8v-36.7C498.9,812.2,490.6,802.6,475.9,802.6L475.9,802.6z M509,835.1
	c0,17.9,13.5,32.5,31.4,32.5c11.2,0,20.1-6.2,23.7-14.2l0.7,13h12.2v-62.5h-12.2l-0.7,12.8c-3.6-7.9-12.5-14.1-23.7-14.1
	C522.5,802.6,509,817.2,509,835.1L509,835.1z M521.9,835.1c0-11.1,8.8-20.3,20.6-20.3c11.6,0,20.3,9.1,20.3,20.3
	c0,11.1-8.6,20.3-20.3,20.3C530.6,855.4,521.9,846.2,521.9,835.1L521.9,835.1z M645.1,803.9l-16.7,1.5c-3.7-1.7-8-2.7-12.7-2.7
	c-14.7,0-26.1,9.8-26.1,23.5c0,7.7,3.7,14.2,9.5,18.4c-3.7,1.7-7.3,4.9-7.3,9.4c0,3.3,2.2,6.2,5.6,8.3c-4.3,2.7-7.8,6.9-7.8,13.6
	c0,13.1,13.2,20.3,27.7,20.3s27.7-7.2,27.7-20.3c0-11.9-10.4-20.3-29.6-20.3c-6.9,0-11.2-0.7-11.2-3.8c0-1.5,0.9-2.6,2.6-3.5
	c2.7,0.9,5.8,1.4,9,1.4c14.8,0,26.2-9.9,26.2-23.5c0-4.3-1.2-8.2-3.2-11.6l6.4,0.9V803.9L645.1,803.9z M615.7,838.7
	c-7.5,0-13.8-5.3-13.8-12.6c0-7.4,6.3-12.7,13.8-12.7c7.7,0,14,5.3,14,12.7C629.7,833.4,623.4,838.7,615.7,838.7L615.7,838.7z
	 M632.8,876c0,6.2-6.2,9.3-15.4,9.3c-9.3,0-15.4-3.6-15.4-9.8c0-4.2,4-7.8,7.3-9.4c0.9,0.1,1.7,0.1,2.5,0.1
	C624.5,866.2,632.8,868.8,632.8,876L632.8,876z M715.7,835.8c0-17.8-12-33.2-31.3-33.2c-18.8,0-31.3,14.7-31.3,32.1
	c0,18.7,13.2,32.9,32.2,32.9c16.8,0,26.6-11.4,28.7-20l-11.2-1.2c-2.6,4.8-8.3,9.8-17.3,9.8c-12,0-19.1-7.4-19.5-17h49.7V835.8
	L715.7,835.8z M684.4,814.1c10.9,0,17.8,7.5,18.3,15.9H666C666.5,821.3,673.9,814.1,684.4,814.1L684.4,814.1z M753.7,802.6
	c-5.4,0-10.1,3.5-14.1,8.5l-0.6-7.3h-12.1v62.5h12.8v-29.5c0-12.5,4.3-22,13.2-22c2.7,0,5.2,1,6.4,1.7l2-11.2
	C760,804.1,757.4,802.6,753.7,802.6z"/>
<path class="st1" d="M475.8,492.7L415.2,548l-6,18.4c-6.1,18.6-12.6,38.3-19.5,59.3l-58.2,46.6l-2.2-4.1l-2.2-4.1
	c-8.5-16.2-17.1-32.5-25.6-48.7l-2.1-4l-2.1-4l-3.9,1.8c-31.7,15-63.3,30.2-94.9,45.3l-5.5,2.6l-5.5,2.6l-5.6,2.7l-5.7,2.7l-5.7,2.8
	l-5.8,2.8l-5.9,2.8l-5.9,2.9l-6,2.9l-6.1,2.9l-2.4-5.2C94.9,582.5,51.4,488.2,8,393.9l-4-8.7l-4-8.7l13-86.9c84.7,0,154.8,0,213.7,0
	h33.1l-7.2,16.2H228c-50,0-109.5,0-181.5,0c20.6,44.7,41.9,91,64,139.1c23,49.9,46.9,101.9,71.8,155.9c31.5-15.2,60.2-28.9,86-41.3
	c23.6-11.3,45.2-21.6,65.1-31c10.8,20.6,21.9,41.5,33,62.7c5.9-17.8,11.4-34.5,16.6-50.3c4.9-14.9,9.5-29.1,14-42.5
	c7.8-3.7,15.2-7.2,22.5-10.6c6.9-3.3,13.6-6.4,20.1-9.5c-17.7-30.4-35-60.2-51.9-89.2c-11.2-19.2-22.2-38.1-33-56.7l12.7-26
	c15.5,26.6,31.2,53.7,47.3,81.2C434.6,421.8,454.9,456.9,475.8,492.7L475.8,492.7z M289.8,289.6l-7.2,16.2h54.6l7.9-16.2H289.8z"/>
<polygon class="st2" points="229.9,424.4 343.4,168.9 387.6,202.3 265.9,452 "/>
<circle class="st1" cx="385" cy="147.3" r="80.6"/>
<path class="st2" d="M394.9,67.4c13.9,1.7,26.4,6.9,37,14.5c13.3,16.4,20.2,38.1,17.4,60.7c-5.5,44.1-45.7,75.5-89.9,70
	c-13.9-1.7-26.4-6.9-37-14.5c-13.3-16.4-20.2-38-17.4-60.7C310.5,93.2,350.8,61.9,394.9,67.4z"/>
<circle class="st2" cx="250.8" cy="432.3" r="29.8"/>
<path class="st1" d="M355.3,221.7l-29.8,61.6l-9.8,20.3l-49.1,101.4c6.8,4.2,11.5,11.2,12.8,19.2l57.5-118l9.9-20.2l29.2-59.9
	c-1.2-0.1-2.4-0.2-3.6-0.4C366.4,225,360.7,223.7,355.3,221.7z"/>
<path class="st1" d="M266.6,405.1l-16.7,34.6l-7.6,15.7c1.9,0.7,3.9,1.2,6,1.4c15.4,1.9,29.4-9,31.3-24.4c0.3-2.8,0.3-5.5-0.2-8.1
	C278.1,416.3,273.3,409.3,266.6,405.1z"/>
<path class="st1" d="M271.7,468.2c-3.9,2.3-8.2,3.9-12.6,4.8c-4.4,0.9-8.9,1.1-13.4,0.5c-11.4-1.4-21.1-7.3-27.6-15.7
	c-6.5-8.4-9.9-19.3-8.5-30.6c0.8-6.6,3.2-12.8,6.8-18.1c3.6-5.3,8.4-9.8,14.2-13.1l1.9,3.5c-5.2,2.9-9.6,7-12.8,11.8
	c-3.2,4.8-5.4,10.4-6.1,16.3c-1.3,10.3,1.7,20.1,7.6,27.7c5.9,7.6,14.7,12.9,25,14.2c4.1,0.5,8.2,0.3,12.1-0.5
	c4-0.8,7.8-2.3,11.4-4.3L271.7,468.2z"/>
<path class="st1" d="M270.3,122.4c3.4-15.8,10.1-30.6,19.4-43.6c9.3-12.9,21.2-24,35.1-32.3l4.7,7.9c-12.8,7.7-23.8,17.9-32.4,29.7
	c-8.5,11.9-14.7,25.5-17.8,40.2L270.3,122.4z"/>
<path class="st1" d="M243.9,92c3.9-9.9,8.8-19.4,14.6-28.2c5.8-8.8,12.6-17.1,20.2-24.6l6.4,6.5c-7.1,7-13.5,14.8-19,23.1
	c-5.5,8.3-10.1,17.2-13.7,26.5L243.9,92z"/>
<path class="st3" d="M329.5,384.2c23.1,54.5,46.6,125.2,44.5,184.3l9.1-27.5l14-42.5l22.5-10.6l20.1-9.5l-51.9-89.2l-33-56.7
	L329.5,384.2z"/>
<path class="st4" d="M366.4,152.5c19.7,0,35.7-16,35.7-35.7s-16-35.7-35.7-35.7c-19.7,0-35.7,16-35.7,35.7S346.7,152.5,366.4,152.5z
	"/>
</svg>
