<?xml version="1.0" encoding="utf-8"?>
<!-- Generator: Adobe Illustrator 19.0.0, SVG Export Plug-In . SVG Version: 6.00 Build 0)  -->
<svg version="1.1" id="Layer_1" xmlns="http://www.w3.org/2000/svg" xmlns:xlink="http://www.w3.org/1999/xlink" x="0px" y="0px"
	 viewBox="0 0 475.8 642.8" style="enable-background:new 0 0 475.8 642.8;" xml:space="preserve">
<style type="text/css">
	.st0{fill-rule:evenodd;clip-rule:evenodd;fill:#157537;}
	.st1{fill-rule:evenodd;clip-rule:evenodd;fill:#4FB271;}
	.st2{fill-rule:evenodd;clip-rule:evenodd;fill:#E4DCCB;}
	.st3{fill-rule:evenodd;clip-rule:evenodd;fill:#6BE094;}
</style>
<path class="st0" d="M475.8,453.4l-60.6,55.3l-6,18.4c-6.1,18.6-12.6,38.3-19.5,59.3l-58.2,46.6l-2.2-4.1l-2.2-4.1
	c-8.5-16.2-17.1-32.5-25.6-48.7l-2.1-4l-2.1-4l-3.9,1.8c-31.7,15-63.3,30.2-94.9,45.3l-5.5,2.6l-5.5,2.6l-5.6,2.7l-5.7,2.7l-5.7,2.8
	l-5.8,2.8l-5.9,2.8l-5.9,2.9l-6,2.9l-6.1,2.9l-2.4-5.2C94.9,543.3,51.4,449,8,354.7l-4-8.7l-4-8.7l13-86.9c84.7,0,154.8,0,213.7,0
	h33.1l-7.2,16.2H228c-50,0-109.5,0-181.5,0c20.6,44.7,41.9,91,64,139.1c23,49.9,46.9,101.9,71.8,155.9c31.5-15.2,60.2-28.9,86-41.3
	c23.6-11.3,45.2-21.6,65.1-31c10.8,20.6,21.9,41.5,33,62.7c5.9-17.8,11.4-34.5,16.6-50.3c4.9-14.9,9.5-29.1,14-42.5
	c7.8-3.7,15.2-7.2,22.5-10.6c6.9-3.3,13.6-6.4,20.1-9.5c-17.7-30.4-35-60.2-51.9-89.2c-11.2-19.2-22.2-38.1-33-56.7l12.7-26
	c15.5,26.6,31.2,53.7,47.3,81.2C434.6,382.6,454.9,417.6,475.8,453.4L475.8,453.4z M289.8,250.3l-7.2,16.2h54.6l7.9-16.2H289.8z"/>
<polygon class="st1" points="229.9,385.1 343.4,129.7 387.6,163.1 265.9,412.8 "/>
<circle class="st0" cx="385" cy="108.1" r="80.6"/>
<path class="st1" d="M394.9,28.1c13.9,1.7,26.4,6.9,37,14.5c13.3,16.4,20.2,38.1,17.4,60.7c-5.5,44.1-45.7,75.5-89.9,70
	c-13.9-1.7-26.4-6.9-37-14.5c-13.3-16.4-20.2-38-17.4-60.7C310.5,54,350.8,22.6,394.9,28.1z"/>
<circle class="st1" cx="250.8" cy="393" r="29.8"/>
<path class="st0" d="M355.3,182.5l-29.8,61.6l-9.8,20.3l-49.1,101.4c6.8,4.2,11.5,11.2,12.8,19.2l57.5-118l9.9-20.2l29.2-59.9
	c-1.2-0.1-2.4-0.2-3.6-0.4C366.4,185.8,360.7,184.4,355.3,182.5z"/>
<path class="st0" d="M266.6,365.8l-16.7,34.6l-7.6,15.7c1.9,0.7,3.9,1.2,6,1.4c15.4,1.9,29.4-9,31.3-24.4c0.3-2.8,0.3-5.5-0.2-8.1
	C278.1,377,273.3,370.1,266.6,365.8z"/>
<path class="st1" d="M271.7,428.9c-3.9,2.3-8.2,3.9-12.6,4.8c-4.4,0.9-8.9,1.1-13.4,0.5c-11.4-1.4-21.1-7.3-27.6-15.7
	c-6.5-8.4-9.9-19.3-8.5-30.6c0.8-6.6,3.2-12.8,6.8-18.1c3.6-5.3,8.4-9.8,14.2-13.1l1.9,3.5c-5.2,2.9-9.6,7-12.8,11.8
	c-3.2,4.8-5.4,10.4-6.1,16.3c-1.3,10.3,1.7,20.1,7.6,27.7c5.9,7.6,14.7,12.9,25,14.2c4.1,0.5,8.2,0.3,12.1-0.5
	c4-0.8,7.8-2.3,11.4-4.3L271.7,428.9z"/>
<path class="st1" d="M270.3,83.2c3.4-15.8,10.1-30.6,19.4-43.6c9.3-12.9,21.2-24,35.1-32.3l4.7,7.9c-12.8,7.7-23.8,17.9-32.4,29.7
	c-8.5,11.9-14.7,25.5-17.8,40.2L270.3,83.2z"/>
<path class="st1" d="M243.9,52.8c3.9-9.9,8.8-19.4,14.6-28.2c5.8-8.8,12.6-17.1,20.2-24.6l6.4,6.5c-7.1,7-13.5,14.8-19,23.1
	c-5.5,8.3-10.1,17.2-13.7,26.5L243.9,52.8z"/>
<path class="st2" d="M329.5,344.9c23.1,54.5,46.6,125.2,44.5,184.3l9.1-27.5l14-42.5l22.5-10.6l20.1-9.5l-51.9-89.2l-33-56.7
	L329.5,344.9z"/>
<path class="st3" d="M366.4,113.3c19.7,0,35.7-16,35.7-35.7s-16-35.7-35.7-35.7c-19.7,0-35.7,16-35.7,35.7S346.7,113.3,366.4,113.3z
	"/>
</svg>
